<svg width="16" height="16" viewBox="0 0 16 16" fill="none" xmlns="http://www.w3.org/2000/svg">
<path fill-rule="evenodd" clip-rule="evenodd" d="M3.78033 2.71967C3.48744 2.42678 3.01257 2.42678 2.71967 2.71967C2.42678 3.01256 2.42678 3.48744 2.71967 3.78033L6.94054 8.00119L2.71967 12.2221C2.42678 12.515 2.42678 12.9898 2.71967 13.2827C3.01257 13.5756 3.48744 13.5756 3.78033 13.2827L8.0012 9.06185L12.222 13.2826C12.5149 13.5755 12.9897 13.5755 13.2826 13.2826C13.5755 12.9897 13.5755 12.5148 13.2826 12.222L9.06186 8.00119L13.2826 3.78044C13.5755 3.48755 13.5755 3.01267 13.2826 2.71978C12.9897 2.42688 12.5149 2.42689 12.222 2.71978L8.0012 6.94054L3.78033 2.71967Z" fill="#98A1A9"/>
</svg>
