<svg width="16" height="16" viewBox="0 0 16 16" fill="none" xmlns="http://www.w3.org/2000/svg">
<path d="M2 6.12109V12.0605C2 12.3498 2.11493 12.6273 2.31952 12.8319C2.52411 13.0365 2.80158 13.1514 3.09091 13.1514H12.9091C13.1984 13.1514 13.4759 13.0365 13.6805 12.8319C13.8851 12.6273 14 12.3498 14 12.0605V6.12109" stroke="white" stroke-miterlimit="10" stroke-linecap="square"/>
<path d="M14 6.06126V4.42489C14 4.13557 13.8851 3.85809 13.6805 3.6535C13.4759 3.44892 13.1984 3.33398 12.9091 3.33398H3.09091C2.80158 3.33398 2.52411 3.44892 2.31952 3.6535C2.11493 3.85809 2 4.13557 2 4.42489V6.06126L8 8.66732L14 6.06126Z" stroke="white" stroke-miterlimit="10" stroke-linecap="square"/>
</svg>
