<svg width="16" height="16" viewBox="0 0 16 16" fill="none" xmlns="http://www.w3.org/2000/svg">
<path d="M7.60619 3.79858L8 4.30198L8.39381 3.79858C8.43894 3.7409 8.47215 3.69606 8.50003 3.65841C8.54764 3.59413 8.57972 3.55082 8.62905 3.50037C9.93338 2.16654 12.0445 2.16654 13.3489 3.50037C13.7729 3.934 14.0043 4.7453 13.9999 5.77805C13.9932 7.35646 13.3141 8.70917 12.2707 9.93654C11.2211 11.1712 9.83212 12.2453 8.45723 13.2646C8.18371 13.4674 7.81629 13.4674 7.54278 13.2646C6.16788 12.2453 4.77892 11.1712 3.72934 9.93654C2.68593 8.70916 2.00677 7.35645 2.00006 5.77803C1.99567 4.74529 2.22711 3.934 2.65114 3.50037C3.95547 2.16654 6.06662 2.16654 7.37095 3.50037C7.42029 3.55082 7.45236 3.59413 7.49997 3.65841C7.52785 3.69606 7.56106 3.7409 7.60619 3.79858Z" stroke="#192734"/>
</svg>
