<svg width="20" height="20" viewBox="0 0 20 20" fill="none" xmlns="http://www.w3.org/2000/svg">
<path d="M8.02448 6.49976H3C2.72386 6.49976 2.5 6.72361 2.5 6.99976V14.9998C2.5 16.1043 3.39543 16.9998 4.5 16.9998H15.5C16.6046 16.9998 17.5 16.1043 17.5 14.9998V9.49976C17.5 9.22361 17.2761 8.99976 17 8.99976H10.2169C10.0492 8.99976 9.89259 8.91564 9.79999 8.77578L8.44139 6.72373C8.34879 6.58387 8.19223 6.49976 8.02448 6.49976Z" stroke="#192734" stroke-miterlimit="10" stroke-linecap="square"/>
<path d="M3.8793 4.5V3.5C3.8793 3.22386 4.10316 3 4.3793 3H15.6207C15.8968 3 16.1207 3.22386 16.1207 3.5V7" stroke="#192734" stroke-miterlimit="10" stroke-linecap="round" stroke-linejoin="round"/>
</svg>
