<svg width="20" height="20" viewBox="0 0 20 20" fill="none" xmlns="http://www.w3.org/2000/svg">
<path fill-rule="evenodd" clip-rule="evenodd" d="M16.5 10C16.5 13.5899 13.5899 16.5 10 16.5C6.41015 16.5 3.5 13.5899 3.5 10C3.5 6.41015 6.41015 3.5 10 3.5C13.5899 3.5 16.5 6.41015 16.5 10ZM17.5 10C17.5 14.1421 14.1421 17.5 10 17.5C5.85786 17.5 2.5 14.1421 2.5 10C2.5 5.85786 5.85786 2.5 10 2.5C14.1421 2.5 17.5 5.85786 17.5 10ZM10 5.75C10.2761 5.75 10.5 5.97386 10.5 6.25V10.5357C10.5 10.8119 10.2761 11.0357 10 11.0357C9.72386 11.0357 9.5 10.8119 9.5 10.5357V6.25C9.5 5.97386 9.72386 5.75 10 5.75ZM10 13.75C10.4438 13.75 10.8036 13.3902 10.8036 12.9464C10.8036 12.5026 10.4438 12.1429 10 12.1429C9.5562 12.1429 9.19643 12.5026 9.19643 12.9464C9.19643 13.3902 9.5562 13.75 10 13.75Z" fill="#505A62"/>
</svg>
