<svg width="20" height="20" viewBox="0 0 20 20" fill="none" xmlns="http://www.w3.org/2000/svg">
<path d="M7.2738 12.7274L12.7282 7.27295" stroke="#192734" stroke-linecap="round" stroke-linejoin="round"/>
<path d="M8.90912 6.72742L10.7331 4.90346C11.3118 4.32497 12.0966 4 12.9149 4C13.7331 4 14.5179 4.32497 15.0966 4.90346V4.90346C15.6751 5.48218 16.0001 6.26696 16.0001 7.08523C16.0001 7.9035 15.6751 8.68828 15.0966 9.267L13.2727 11.091" stroke="#192734" stroke-linecap="round" stroke-linejoin="round"/>
<path d="M6.72742 8.90918L4.90346 10.7331C4.32497 11.3119 4 12.0966 4 12.9149C4 13.7332 4.32497 14.518 4.90346 15.0967V15.0967C5.48218 15.6752 6.26696 16.0001 7.08523 16.0001C7.9035 16.0001 8.68828 15.6752 9.267 15.0967L11.091 13.2727" stroke="#192734" stroke-linecap="round" stroke-linejoin="round"/>
</svg>
