<svg width="20" height="20" viewBox="0 0 20 20" fill="none" xmlns="http://www.w3.org/2000/svg">
<path fill-rule="evenodd" clip-rule="evenodd" d="M10.0961 1.93768H10.0264C8.94802 1.92763 7.90972 2.34591 7.13948 3.10075C6.36862 3.85619 5.92936 4.88687 5.91829 5.96612H5.91827V5.97124V6.52691H4.3125C3.20793 6.52691 2.3125 7.42234 2.3125 8.52691V16.0164C2.3125 17.121 3.20793 18.0164 4.3125 18.0164H15.7356C16.8401 18.0164 17.7356 17.121 17.7356 16.0164V8.52691C17.7356 7.42234 16.8401 6.52691 15.7356 6.52691H14.1296V6.04576C14.1397 4.96742 13.7214 3.92913 12.9666 3.15888C12.2111 2.38803 11.1804 1.94877 10.1012 1.9377L10.1012 1.93768H10.0961ZM13.1296 6.52691V6.04336V6.03838H13.1297C13.1378 5.22428 12.8222 4.44029 12.2523 3.85881C11.6831 3.27793 10.9066 2.94667 10.0934 2.93768H10.024H10.019V2.93765C9.20487 2.92955 8.42088 3.24512 7.8394 3.81497C7.25852 4.38423 6.92726 5.1607 6.91827 5.9739V6.52691H13.1296ZM4.3125 7.52691C3.76022 7.52691 3.3125 7.97462 3.3125 8.52691V16.0164C3.3125 16.5687 3.76022 17.0164 4.3125 17.0164H15.7356C16.2879 17.0164 16.7356 16.5687 16.7356 16.0164V8.52691C16.7356 7.97462 16.2879 7.52691 15.7356 7.52691H4.3125ZM10.0242 13.2385C10.5581 13.2385 10.991 12.8056 10.991 12.2717C10.991 11.7377 10.5581 11.3049 10.0242 11.3049C9.49026 11.3049 9.05741 11.7377 9.05741 12.2717C9.05741 12.8056 9.49026 13.2385 10.0242 13.2385ZM11.991 12.2717C11.991 13.3579 11.1104 14.2385 10.0242 14.2385C8.93797 14.2385 8.05741 13.3579 8.05741 12.2717C8.05741 11.1854 8.93797 10.3049 10.0242 10.3049C11.1104 10.3049 11.991 11.1854 11.991 12.2717Z" fill="#687178"/>
</svg>
