<svg width="16" height="16" viewBox="0 0 16 16" fill="none" xmlns="http://www.w3.org/2000/svg">
<path d="M13.2 2H2.8C2.45522 2 2.12456 2.13696 1.88076 2.38076C1.63696 2.62456 1.5 2.95522 1.5 3.3V10.2333C1.5 10.5781 1.63696 10.9088 1.88076 11.1526C2.12456 11.3964 2.45522 11.5333 2.8 11.5333H4.5C4.77614 11.5333 5 11.7572 5 12.0333V13.7077C5 13.8654 5.174 13.961 5.30715 13.8765L8.75472 11.689C8.91493 11.5873 9.10075 11.5333 9.29049 11.5333H13.2C13.5448 11.5333 13.8754 11.3964 14.1192 11.1526C14.363 10.9088 14.5 10.5781 14.5 10.2333V3.3C14.5 2.95522 14.363 2.62456 14.1192 2.38076C13.8754 2.13696 13.5448 2 13.2 2Z" stroke="#192734" stroke-miterlimit="10" stroke-linecap="square"/>
<path d="M5 5H10.5" stroke="#192734" stroke-miterlimit="10" stroke-linecap="round"/>
<path d="M5 7.5H8" stroke="#192734" stroke-miterlimit="10" stroke-linecap="round"/>
</svg>
