<svg width="16" height="16" viewBox="0 0 16 16" fill="none" xmlns="http://www.w3.org/2000/svg">
<path d="M10.4659 13.0275H14.5868L13.4288 11.8695C13.2733 11.714 13.15 11.5293 13.0659 11.3261C12.9817 11.1229 12.9384 10.9051 12.9385 10.6852V7.09341C12.9386 6.07055 12.6216 5.07281 12.0312 4.23755C11.4408 3.40228 10.606 2.77057 9.64175 2.4294V2.14835C9.64175 1.71118 9.46809 1.29192 9.15896 0.982791C8.84984 0.673665 8.43057 0.5 7.9934 0.5C7.55623 0.5 7.13697 0.673665 6.82784 0.982791C6.51871 1.29192 6.34505 1.71118 6.34505 2.14835V2.4294C4.42472 3.10852 3.04835 4.94066 3.04835 7.09341V10.686C3.04835 11.1294 2.87197 11.5555 2.55796 11.8695L1.39999 13.0275H5.52087M10.4659 13.0275H5.52087M10.4659 13.0275C10.4659 13.6832 10.2054 14.3121 9.74174 14.7758C9.27805 15.2395 8.64916 15.5 7.9934 15.5C7.33765 15.5 6.70875 15.2395 6.24506 14.7758C5.78137 14.3121 5.52087 13.6832 5.52087 13.0275" stroke="#1F272E" stroke-linecap="round" stroke-linejoin="round"/>
</svg>
