<svg width="24" height="24" viewBox="0 0 24 24" fill="none" xmlns="http://www.w3.org/2000/svg">
<path d="M12 22C17.5228 22 22 17.5228 22 12C22 6.47715 17.5228 2 12 2C6.47715 2 2 6.47715 2 12C2 17.5228 6.47715 22 12 22Z" fill="#F8814F"/>
<path d="M11.8972 13.8034V13.1642C11.8972 12.3252 12.3366 11.5261 13.0957 11.0866C14.2544 10.4074 14.6539 8.96915 13.9747 7.81053C13.2955 6.6519 11.8572 6.25238 10.6986 6.93157C9.97943 7.37105 9.5 8.13015 9.5 9.00911" stroke="white" stroke-width="2" stroke-miterlimit="10" stroke-linecap="round" stroke-linejoin="round"/>
<path d="M11.8999 18.002C12.4522 18.002 12.8999 17.5542 12.8999 17.002C12.8999 16.4497 12.4522 16.002 11.8999 16.002C11.3476 16.002 10.8999 16.4497 10.8999 17.002C10.8999 17.5542 11.3476 18.002 11.8999 18.002Z" fill="white"/>
</svg>
