<svg width="16" height="16" viewBox="0 0 16 16" fill="none" xmlns="http://www.w3.org/2000/svg">
<path d="M7.33009 3.71051C7.53091 3.04787 8.46909 3.04787 8.66991 3.71051L9.34959 5.95323C9.43903 6.24837 9.7111 6.45021 10.0195 6.45021H12.4569C13.1237 6.45021 13.4129 7.29421 12.8862 7.70313L10.9117 9.23603C10.6806 9.41549 10.5855 9.71981 10.6733 9.99897L11.4357 12.4232C11.6399 13.0722 10.8919 13.6015 10.3478 13.1931L8.42021 11.7463C8.17124 11.5594 7.82876 11.5594 7.57979 11.7463L5.65222 13.1931C5.10814 13.6015 4.36014 13.0722 4.56425 12.4232L5.32674 9.99897C5.41454 9.71981 5.31942 9.41549 5.08826 9.23603L3.11382 7.70313C2.58711 7.29421 2.87628 6.45021 3.54309 6.45021H5.9805C6.2889 6.45021 6.56097 6.24837 6.65041 5.95323L7.33009 3.71051Z" stroke="#4C5A67" stroke-linecap="round" stroke-linejoin="round"/>
</svg>
