<svg width="24" height="24" viewBox="0 0 24 24" fill="none" xmlns="http://www.w3.org/2000/svg">
<path d="M18.4 7.25L19.4 4.5L4.40002 9.95455L11.2182 12.6818L13.9455 19.5L15.4 15.5" stroke="#687178" stroke-linecap="round" stroke-linejoin="round"/>
<path d="M16.9982 13.2137C17.945 13.2137 18.7125 12.4462 18.7125 11.4994C18.7125 10.5527 17.945 9.78516 16.9982 9.78516C16.0514 9.78516 15.2839 10.5527 15.2839 11.4994C15.2839 12.4462 16.0514 13.2137 16.9982 13.2137Z" stroke="#687178" stroke-linecap="round" stroke-linejoin="round"/>
<path d="M16.9983 9.78571V8.5" stroke="#687178" stroke-linecap="round" stroke-linejoin="round"/>
<path d="M15.5135 10.6429L14.4 10" stroke="#687178" stroke-linecap="round" stroke-linejoin="round"/>
<path d="M15.5135 12.3574L14.4 13.0003" stroke="#687178" stroke-linecap="round" stroke-linejoin="round"/>
<path d="M16.9983 13.2148V14.5006" stroke="#687178" stroke-linecap="round" stroke-linejoin="round"/>
<path d="M18.4835 12.3574L19.597 13.0003" stroke="#687178" stroke-linecap="round" stroke-linejoin="round"/>
<path d="M18.4835 10.6429L19.597 10" stroke="#687178" stroke-linecap="round" stroke-linejoin="round"/>
</svg>
