<svg width="16" height="16" viewBox="0 0 16 16" fill="none" xmlns="http://www.w3.org/2000/svg">
<path d="M11.8186 12.8187H13.0004C13.5527 12.8187 14.0004 12.371 14.0004 11.8187V10.4607C14.0003 10.3517 13.9676 10.2452 13.9065 10.155C13.8453 10.0648 13.7585 9.99493 13.6573 9.95449L11.6162 9.13631C11.5152 9.09594 11.4285 9.02628 11.3674 8.93627C11.3062 8.84626 11.2734 8.74003 11.2731 8.63122V8.15231C11.6039 7.96246 11.8789 7.68884 12.0704 7.35898C12.2619 7.02912 12.3632 6.65464 12.364 6.27322V5.18231C12.3641 4.79928 12.2634 4.42297 12.0719 4.09123C11.8805 3.75948 11.605 3.48398 11.2733 3.29243C10.9416 3.10088 10.5654 3.00002 10.1823 3C9.79931 2.99998 9.42302 3.10079 9.09131 3.29231" stroke="#4C5A67" stroke-miterlimit="10" stroke-linecap="round" stroke-linejoin="round"/>
<path d="M9.29327 10.5L7.25218 9.68178C7.15114 9.64141 7.06448 9.57174 7.00334 9.48174C6.9422 9.39173 6.90938 9.28549 6.90909 9.17669V8.69778C7.23991 8.50793 7.5149 8.23431 7.7064 7.90445C7.89791 7.57458 7.99917 7.20011 8 6.81869V5.72778C8 5.14912 7.77013 4.59417 7.36096 4.185C6.95179 3.77583 6.39684 3.54596 5.81818 3.54596C5.23953 3.54596 4.68457 3.77583 4.2754 4.185C3.86623 4.59417 3.63636 5.14912 3.63636 5.72778V6.81869C3.6372 7.20011 3.73846 7.57458 3.92996 7.90445C4.12146 8.23431 4.39645 8.50793 4.72727 8.69778V9.17669C4.7272 9.28568 4.69448 9.39215 4.63333 9.48238C4.57218 9.5726 4.4854 9.64243 4.38418 9.68287L2.34309 10.501C2.24205 10.5414 2.15539 10.6111 2.09425 10.7011C2.03311 10.7911 2.00029 10.8973 2 11.0061V11.8187C2 12.371 2.44772 12.8187 3 12.8187H8.63636C9.18865 12.8187 9.63636 12.371 9.63636 11.8187V11.0061C9.63629 10.8971 9.60357 10.7907 9.54242 10.7005C9.48127 10.6102 9.39449 10.5404 9.29327 10.5Z" stroke="#4C5A67" stroke-miterlimit="10" stroke-linecap="round" stroke-linejoin="round"/>
</svg>
