<svg width="16" height="16" viewBox="0 0 16 16" fill="none" xmlns="http://www.w3.org/2000/svg">
<path d="M10.5 2.5L10.8536 2.14645C10.7598 2.05268 10.6326 2 10.5 2V2.5ZM13.5 5.5H14C14 5.36739 13.9473 5.24021 13.8536 5.14645L13.5 5.5ZM5.5 3H6V2H5.5V3ZM9 2C8.72386 2 8.5 2.22386 8.5 2.5C8.5 2.77614 8.72386 3 9 3V2ZM2 4V13.5001H3V4H2ZM4 15.5001H12V14.5001H4V15.5001ZM14 13.5001V5.5H13V13.5001H14ZM13.8536 5.14645L10.8536 2.14645L10.1464 2.85355L13.1464 5.85355L13.8536 5.14645ZM5.5 2H4V3H5.5V2ZM10.5 2H9V3H10.5V2ZM12 15.5001C13.1046 15.5001 14 14.6047 14 13.5001H13C13 14.0524 12.5523 14.5001 12 14.5001V15.5001ZM2 13.5001C2 14.6047 2.89543 15.5001 4 15.5001V14.5001C3.44772 14.5001 3 14.0524 3 13.5001H2ZM3 4C3 3.44772 3.44772 3 4 3V2C2.89543 2 2 2.89543 2 4H3Z" fill="#1F272E"/>
<path d="M6 2.5V2.25C6 1.55964 6.55964 1 7.25 1V1C7.94036 1 8.5 1.55964 8.5 2.25V8.5C8.5 9.32843 7.82843 10 7 10V10C6.17157 10 5.5 9.32843 5.5 8.5V6" stroke="#1F272E" stroke-linecap="round"/>
</svg>
