<svg width="16" height="16" viewBox="0 0 16 16" fill="none" xmlns="http://www.w3.org/2000/svg">
<path d="M12.6401 10.2571L10.107 12.7901C9.52125 13.3759 8.5718 13.3756 7.98601 12.7898L2.49654 7.30037C2.40278 7.2066 2.3501 7.07942 2.3501 6.94682L2.3501 3C2.3501 2.72386 2.57396 2.5 2.8501 2.5L6.79691 2.5C6.92952 2.5 7.0567 2.55268 7.15047 2.64645L12.6399 8.13591C13.2257 8.7217 13.2259 9.67131 12.6401 10.2571Z" stroke="#4C5A67" stroke-linecap="round" stroke-linejoin="round"/>
<path d="M6.08001 5.46157C6.08001 5.88642 5.7356 6.23082 5.31076 6.23082C4.88591 6.23082 4.5415 5.88642 4.5415 5.46157C4.5415 5.03673 4.88591 4.69232 5.31076 4.69232C5.7356 4.69232 6.08001 5.03673 6.08001 5.46157Z" stroke="#4C5A67" stroke-linecap="round" stroke-linejoin="round"/>
</svg>
