<svg width="24" height="24" viewBox="0 0 24 24" fill="none" xmlns="http://www.w3.org/2000/svg">
<path fill-rule="evenodd" clip-rule="evenodd" d="M15.6054 7.33015C15.9959 6.93963 16.6291 6.93963 17.0196 7.33015L18.4943 8.80483C18.8848 9.19535 18.8848 9.82852 18.4943 10.219L10.5347 18.1786L6.20142 19.623L7.64586 15.2897L15.6054 7.33015Z" stroke="#687178" stroke-linecap="round" stroke-linejoin="round"/>
<path d="M5.55401 12C5.80974 12 6.03739 11.838 6.12119 11.5964L6.71558 9.88281H9.84058L10.4316 11.5957C10.515 11.8376 10.7428 12 10.9987 12C11.4143 12 11.704 11.5878 11.5633 11.1969L9.20949 4.65608C9.06783 4.26245 8.69446 4 8.27612 4C7.85778 4 7.48441 4.26245 7.34276 4.65608L4.98914 11.1964C4.84836 11.5876 5.13825 12 5.55401 12ZM7.06714 8.86719L8.24683 5.45312H8.30933L9.48901 8.86719H7.06714Z" fill="#687178"/>
</svg>
