<svg width="16" height="16" viewBox="0 0 16 16" fill="none" xmlns="http://www.w3.org/2000/svg">
<path fill-rule="evenodd" clip-rule="evenodd" d="M8.07685 1.44936H8.02155C7.13255 1.4412 6.2766 1.78609 5.64159 2.4084C5.00596 3.03131 4.64377 3.88117 4.63464 4.77109L4.63462 4.77109V4.77621V5.12078H3.75C2.64543 5.12078 1.75 6.01621 1.75 7.12078V12.5124C1.75 13.617 2.64543 14.5124 3.75 14.5124H12.2885C13.393 14.5124 14.2885 13.617 14.2885 12.5124V7.12078C14.2885 6.01621 13.393 5.12078 12.2885 5.12078H5.63462V4.7789C5.64166 4.15502 5.89586 3.55936 6.34152 3.12261C6.78776 2.6853 7.38942 2.44312 8.01419 2.44934L8.01418 2.44936H8.01916H8.07417C8.69805 2.4564 9.29371 2.7106 9.73045 3.15626C9.92373 3.35349 10.2403 3.35668 10.4375 3.1634C10.6347 2.97012 10.6379 2.65356 10.4447 2.45633C9.82175 1.82071 8.97189 1.45851 8.08198 1.44939L8.08198 1.44936H8.07685ZM3.75 6.12078C3.19772 6.12078 2.75 6.56849 2.75 7.12078V12.5124C2.75 13.0647 3.19772 13.5124 3.75 13.5124H12.2885C12.8407 13.5124 13.2885 13.0647 13.2885 12.5124V7.12078C13.2885 6.56849 12.8407 6.12078 12.2885 6.12078H3.75ZM8.01936 10.39C8.33605 10.39 8.59279 10.1332 8.59279 9.81654C8.59279 9.49985 8.33605 9.24312 8.01936 9.24312C7.70266 9.24312 7.44593 9.49985 7.44593 9.81654C7.44593 10.1332 7.70266 10.39 8.01936 10.39ZM9.59279 9.81654C9.59279 10.6855 8.88834 11.39 8.01936 11.39C7.15038 11.39 6.44593 10.6855 6.44593 9.81654C6.44593 8.94756 7.15038 8.24312 8.01936 8.24312C8.88834 8.24312 9.59279 8.94756 9.59279 9.81654Z" fill="#687178"/>
</svg>
