<svg width="24" height="24" viewBox="0 0 24 24" fill="none" xmlns="http://www.w3.org/2000/svg">
<path fill-rule="evenodd" clip-rule="evenodd" d="M4.00288 21.3966C2.47791 21.3966 1.51397 19.7584 2.25456 18.4253L10.2527 4.02871C11.0147 2.65709 12.9873 2.6571 13.7493 4.02872L21.7474 18.4253C22.488 19.7584 21.524 21.3966 19.9991 21.3966H4.00288ZM11.9991 18.4126C12.5688 18.4126 13.0307 17.9507 13.0307 17.381C13.0307 16.8113 12.5688 16.3495 11.9991 16.3495C11.4294 16.3495 10.9675 16.8113 10.9675 17.381C10.9675 17.9507 11.4294 18.4126 11.9991 18.4126ZM13 8.8601C13 8.30782 12.5523 7.8601 12 7.8601C11.4477 7.8601 11 8.30782 11 8.8601V13.9074C11 14.4597 11.4477 14.9074 12 14.9074C12.5523 14.9074 13 14.4597 13 13.9074V8.8601Z" fill="#D6932E"/>
</svg>
